<svg width="88" height="179" viewBox="0 0 88 179" fill="none" xmlns="http://www.w3.org/2000/svg">
<path d="M88 0H0V179H88V0Z" fill="#154273"/>
<path d="M45.5844 138.474H44.0532V134.16H45.5844V138.474ZM52.5012 119.429H50.97V115.115H52.5012V119.429ZM24.13 111.982C24.0068 111.982 23.2148 111.982 23.2148 112.143C23.2148 112.305 23.5844 112.233 24.13 112.322C25.362 112.537 25.8372 113.164 26.6996 113.164C27.474 113.164 28.2836 112.627 27.9668 111.481C27.914 111.284 27.8084 111.338 27.7732 111.463C27.65 111.982 27.034 112.269 26.3828 112.269C25.5732 112.269 25.4148 111.982 24.13 111.982ZM15.6996 116.296C15.8404 116.493 17.2836 118.391 15.066 119.124C14.9604 119.16 14.9428 119.25 15.0836 119.321C16.7204 120.019 17.5124 118.731 17.5124 118.731C18.3396 120.664 17.0724 121.72 17.0724 121.72C17.2484 122.06 18.0404 122.651 19.2196 122.919C19.6772 122.669 20.3108 122.203 20.5748 121.487C20.5748 121.487 20.8916 122.329 20.61 123.134C23.954 123.438 25.1332 120.718 27.7204 121.219C27.7908 121.237 27.826 121.183 27.826 121.111C27.826 119.429 26.8228 116.368 23.6196 115.741C20.434 115.115 21.2964 113.79 21.2964 113.79C22.634 113.737 23.4084 114.327 23.4084 114.327C23.6548 113.916 23.3028 113.486 23.3028 113.486C23.426 113.325 23.4964 112.77 23.4964 112.77C21.9828 112.77 21.5956 112.43 21.5956 112.43C21.3668 111.517 21.9828 110.228 24.2356 111.606C24.7988 111.105 24.746 110.318 24.746 110.318C24.922 110.228 25.0276 109.96 25.0276 109.852C25.0276 109.476 23.2324 108.456 22.7748 108.331C22.6692 107.776 21.9652 106.988 19.8532 107.275C18.85 107.4 18.1284 107.131 18.4628 106.541C18.5156 106.433 18.3396 106.415 18.2516 106.523C18.0228 106.756 17.706 107.418 18.5684 107.865C19.5364 108.367 19.5892 109.351 19.6068 109.494C19.6244 109.709 19.378 109.727 19.3252 109.512C18.8852 107.847 16.6324 107.489 15.3124 108.367C15.3828 109.262 16.3332 109.852 16.8436 109.852C17.1428 109.852 17.5476 109.548 17.5476 109.136C17.5476 108.939 17.6532 108.957 17.706 109.118C17.9172 109.709 17.0548 110.944 15.7876 110.192C14.4852 111.517 15.0132 113.164 15.1364 113.754C15.3652 114.828 14.8548 115.885 13.8868 115.401C13.834 115.383 13.7812 115.365 13.7812 115.473C13.7988 116.117 14.6612 116.887 15.6996 116.296ZM22.8804 109.62C22.2644 110.318 21.2788 110.157 21.0324 109.011C22.2996 108.939 22.8276 109.065 22.8804 109.62ZM61.7236 112.269C61.0724 112.269 60.4564 111.982 60.3332 111.463C60.298 111.338 60.1924 111.284 60.1396 111.481C59.8228 112.627 60.6324 113.164 61.4068 113.164C62.2692 113.164 62.7444 112.537 63.9764 112.322C64.522 112.233 64.8916 112.322 64.8916 112.143C64.8916 111.982 64.0996 111.982 63.9764 111.982C62.7092 111.982 62.5332 112.269 61.7236 112.269ZM74.3252 115.437C74.3252 115.33 74.2724 115.348 74.2196 115.365C73.2516 115.849 72.7412 114.811 72.97 113.719C73.0932 113.11 73.6212 111.481 72.3188 110.157C71.034 110.908 70.1716 109.673 70.4004 109.083C70.4532 108.921 70.5588 108.904 70.5588 109.1C70.5588 109.512 70.9636 109.816 71.2628 109.816C71.7732 109.816 72.7236 109.226 72.794 108.331C71.474 107.454 69.2212 107.812 68.7812 109.476C68.7284 109.691 68.482 109.673 68.4996 109.458C68.4996 109.315 68.57 108.331 69.538 107.83C70.418 107.382 70.1012 106.72 69.8548 106.487C69.7668 106.398 69.5732 106.415 69.6436 106.505C69.978 107.096 69.2564 107.364 68.2708 107.239C66.1588 106.952 65.4724 107.758 65.3492 108.295C64.8916 108.42 63.0964 109.441 63.0964 109.816C63.0964 109.924 63.202 110.21 63.378 110.282C63.378 110.282 63.3428 111.052 63.8884 111.571C66.1236 110.192 66.7572 111.481 66.5284 112.394C66.5284 112.394 66.1236 112.716 64.61 112.734C64.61 112.734 64.6804 113.289 64.8036 113.45C64.8036 113.45 64.4516 113.898 64.698 114.291C64.698 114.291 65.4724 113.701 66.81 113.754C66.81 113.754 67.6724 115.079 64.4868 115.706C61.3012 116.332 60.2804 119.393 60.2804 121.076C60.2804 121.165 60.3156 121.201 60.386 121.183C62.9732 120.7 64.1524 123.42 67.4964 123.098C67.1972 122.293 67.5316 121.451 67.5316 121.451C67.7956 122.167 68.4292 122.651 68.8868 122.883C70.0836 122.615 70.858 122.042 71.034 121.684C71.034 121.684 69.7668 120.628 70.594 118.695C70.594 118.695 71.386 119.984 73.0228 119.286C73.1636 119.214 73.1284 119.124 73.0404 119.089C70.8228 118.355 72.266 116.457 72.4068 116.26C73.4452 116.887 74.3252 116.117 74.3252 115.437ZM67.074 109.011C66.8276 110.157 65.842 110.318 65.226 109.62C65.2788 109.065 65.8244 108.939 67.074 109.011ZM43.4724 89.8759C43.4724 90.1623 43.5956 90.4129 43.6836 90.5561C43.8772 90.8425 43.842 91.0036 43.754 91.0931C43.666 91.1826 43.5076 91.2184 43.226 91.0215C43.0852 90.9141 42.8388 90.8067 42.5572 90.8067C42.082 90.8067 41.8356 91.1289 41.8356 91.3974C41.8356 91.6659 42.082 91.9881 42.5572 91.9881C42.8388 91.9881 43.0852 91.8628 43.226 91.7733C43.5076 91.5764 43.666 91.6122 43.754 91.7017C43.842 91.7912 43.7188 92.7757 43.5956 93.5633C42.8036 93.7423 42.4164 94.3867 42.4164 94.7626C42.4164 95.7471 43.4372 96.302 44.0532 96.6421C44.6516 96.3199 45.69 95.7471 45.69 94.7626C45.69 94.3867 45.3028 93.7244 44.5108 93.5633C44.4052 92.7936 44.2644 91.7912 44.3524 91.7017C44.4404 91.6122 44.5988 91.5764 44.8804 91.7733C45.0212 91.8807 45.2676 91.9881 45.5492 91.9881C46.0244 91.9881 46.2708 91.6659 46.2708 91.3974C46.2708 91.1289 46.0244 90.8067 45.5492 90.8067C45.2676 90.8067 45.0212 90.932 44.8804 91.0215C44.5988 91.2184 44.4404 91.1826 44.3524 91.0931C44.2644 91.0036 44.2292 90.8425 44.4228 90.5561C44.5284 90.4129 44.634 90.1623 44.634 89.8759C44.634 89.3926 44.3172 89.142 44.0532 89.142C43.7892 89.142 43.4724 89.3926 43.4724 89.8759ZM44.0532 97.1433C43.402 97.1433 42.874 97.6803 42.874 98.3426C42.874 99.0049 43.402 99.5419 44.0532 99.5419C44.7044 99.5419 45.2324 99.0049 45.2324 98.3426C45.2324 97.6803 44.7044 97.1433 44.0532 97.1433ZM44.0532 108.617C48.7524 108.617 51.3924 109.53 51.3924 109.53C51.41 107.114 51.41 105.771 52.7652 105.968C52.026 103.945 55.2292 103.14 55.2292 100.508C55.2292 98.7722 54.0148 98.5753 53.6628 98.5753C52.6068 98.5753 52.7652 99.2734 51.8676 99.2734C51.762 99.2734 51.6388 99.2376 51.6388 99.3271C51.6388 99.6314 51.8852 100.15 52.3076 100.15C52.8708 100.15 52.8708 99.5777 53.2932 99.5777C53.4692 99.5777 53.7332 99.7209 53.7332 100.312C53.7332 101.439 53.0116 102.674 52.1492 103.641C51.9556 103.372 51.6916 103.193 51.3572 103.193C50.8468 103.193 50.4068 103.73 50.4068 104.393C50.4068 104.643 50.442 104.822 50.53 105.019C50.2484 105.18 49.9844 105.27 49.8084 105.27C49.4212 105.27 48.8404 105.109 48.8404 104.25C48.8404 102.334 51.3572 100.652 51.3572 98.2173C51.3572 97.0538 50.6004 95.9082 48.9988 95.9082C47.2916 95.9082 47.6084 97.4834 46.13 97.4834C46.0596 97.4834 46.0068 97.5013 46.0068 97.5729C46.0068 97.6803 46.2708 98.5574 47.0276 98.5574C47.8372 98.5574 48.066 97.1254 48.8052 97.1254C49.0692 97.1254 49.474 97.2865 49.474 98.2531C49.474 99.0049 49.1044 100.24 48.5764 101.403C48.3828 101.207 48.1188 101.063 47.8372 101.063C47.2036 101.063 46.746 101.69 46.746 102.424C46.746 102.889 46.922 103.355 47.2388 103.641C46.8692 104.124 46.482 104.518 45.9716 104.518C44.9508 104.518 44.5108 103.927 44.5108 103.283C44.5108 102.585 45.7604 102.334 45.7604 101.26C45.7604 100.526 45.2852 100.115 44.8452 100.115C44.3524 100.115 44.106 100.437 44.0532 100.437C44.0004 100.437 43.754 100.115 43.2612 100.115C42.8036 100.115 42.346 100.526 42.346 101.26C42.346 102.334 43.5956 102.603 43.5956 103.283C43.5956 103.927 43.138 104.518 42.1348 104.518C41.6244 104.518 41.2372 104.124 40.8676 103.641C41.1844 103.337 41.3604 102.889 41.3604 102.424C41.3604 101.672 40.9028 101.063 40.2692 101.063C39.97 101.063 39.7236 101.207 39.53 101.403C39.002 100.222 38.6324 99.0049 38.6324 98.2531C38.6324 97.2865 39.0372 97.1254 39.3012 97.1254C40.0228 97.1254 40.2516 98.5574 41.0788 98.5574C41.8356 98.5574 42.0996 97.6803 42.0996 97.5729C42.0996 97.5192 42.0468 97.4834 41.9764 97.4834C40.498 97.4834 40.8148 95.9082 39.1076 95.9082C37.5236 95.9082 36.7492 97.0538 36.7492 98.2173C36.7492 100.652 39.266 102.334 39.266 104.25C39.266 105.109 38.6852 105.27 38.298 105.27C38.1044 105.27 37.858 105.18 37.5764 105.019C37.6644 104.804 37.6996 104.643 37.6996 104.393C37.6996 103.73 37.2596 103.193 36.7492 103.193C36.4324 103.193 36.1684 103.372 35.9748 103.641C35.1124 102.674 34.3908 101.439 34.3908 100.312C34.3908 99.7388 34.6548 99.5777 34.8308 99.5777C35.2356 99.5777 35.2532 100.15 35.8164 100.15C36.2388 100.15 36.4852 99.6314 36.4852 99.3271C36.4852 99.2376 36.362 99.2734 36.2564 99.2734C35.3588 99.2734 35.5172 98.5753 34.4612 98.5753C34.1092 98.5753 32.8948 98.7722 32.8948 100.508C32.8948 103.158 36.098 103.945 35.3588 105.968C36.714 105.771 36.6964 107.114 36.7316 109.53C36.714 109.53 39.354 108.617 44.0532 108.617ZM35.4468 112.179C34.162 112.466 33.2468 112.734 32.842 112.859C32.8596 112.287 33.0708 111.75 33.5812 111.642C33.6516 111.624 33.6692 111.535 33.5988 111.499C32.4548 110.729 31.8564 112.197 31.8388 112.251C31.434 112.215 30.818 112.34 30.818 112.895C30.818 114.56 27.0868 115.473 26.2244 115.616C27.7556 116.207 28.3892 118.176 28.3892 118.176C29.498 117.048 30.7828 116.064 31.082 116.064C31.3812 116.064 31.4868 116.439 31.5044 116.654C31.5044 116.726 31.5748 116.744 31.6276 116.69C32.2084 115.813 31.9268 115.616 31.874 115.348C31.8388 115.151 31.8916 114.381 32.7364 114.47V125.551L32.2964 125.64C32.1028 125.676 30.5012 124.298 28.6884 123.009C26.858 121.72 25.89 122.49 23.8132 123.635C21.0852 125.139 18.3396 123.778 18.3396 123.778C15.9988 125.479 15.1892 130.419 15.1892 130.419C14.714 130.616 13.9396 130.831 13.218 130.831C11.4228 130.831 11.106 129.721 11.106 129.077C11.106 126.267 14.5732 125.067 14.5732 122.293C14.5732 121.613 14.274 118.892 10.9476 118.892C10.5252 118.892 7.9908 118.892 7.9732 118.892C6.7236 118.892 6.4244 117.979 6.2484 117.639C6.178 117.496 6.0548 117.585 6.1076 117.692C6.1956 117.925 5.9668 118.283 5.9668 118.981C5.9668 120.109 6.618 120.789 7.8324 120.789C8.378 120.789 8.906 120.628 9.0644 120.521C9.17 120.449 9.2404 120.556 9.1876 120.628C8.6596 121.255 8.6244 122.436 8.8356 122.704C8.8884 122.776 8.9588 122.758 8.9588 122.704C9.258 121.523 10.3492 120.395 11.8276 120.395C13.6404 120.395 13.6228 121.953 13.6228 122.329C13.6228 124.584 9.7332 126.231 9.7332 129.345C9.7332 132.496 13.0068 133.158 14.89 132.675C14.7844 135.825 11.2292 136.899 11.1236 134.644C11.1236 134.536 11.0356 134.518 10.9828 134.662C10.5428 135.771 10.7188 136.756 12.0916 137.06C12.1796 137.078 12.1444 137.132 12.0564 137.203C10.6836 138.081 11.4228 141.553 11.4932 142.573C11.5988 144.041 10.1556 143.862 10.0324 143.826C9.9796 143.809 9.9092 143.826 10.0148 143.952C11.0356 145.223 12.3028 144.059 12.3028 144.059C13.2532 144.363 12.6724 145.187 12.0212 145.616C11.9156 145.688 11.9332 145.76 12.0388 145.76C12.1796 145.778 13.658 145.903 13.922 144.704C14.5732 145.491 15.5412 145.205 15.7348 145.097C16.0164 144.954 17.4068 144.435 17.53 146.01C17.53 146.118 17.6004 146.046 17.6532 145.992C18.6916 144.65 17.5828 143.826 16.9492 143.737C17.002 143.665 17.8292 142.949 18.586 143.934C18.6388 144.005 18.6916 144.023 18.6916 143.88C18.7796 142.18 17.4244 142.036 16.5444 142.77C16.5092 142.591 16.21 141.643 17.53 141.678C17.5652 141.678 17.618 141.625 17.5652 141.571C16.5444 140.461 15.6996 141.464 15.4884 141.714C15.0308 142.269 13.8868 142.036 13.7812 142.036C14.1332 136.147 19.2372 138.242 19.9412 135.378C19.9764 135.234 20.0468 135.288 20.0468 135.342C20.2404 136.04 21.9652 136.129 22.282 134.769C22.2996 134.68 22.282 134.626 22.2292 134.68C20.7508 136.183 17.4244 131.493 21.9652 127.681C25.8372 124.441 29.3044 126.249 30.6244 127.305C30.6948 127.77 30.4132 127.931 30.2372 127.985C30.1668 128.003 30.1492 128.057 30.2548 128.11C30.6244 128.253 31.1348 128.2 31.3812 127.86C32.2084 128.45 31.5044 129.202 31.17 129.399C31.082 129.453 31.1172 129.506 31.1876 129.524C31.9444 129.668 32.578 128.88 32.6132 128.415L32.7364 128.486V131.833C32.7364 136.595 38.1396 137.257 44.0708 141.285C50.002 137.239 55.3876 136.595 55.3876 131.833V128.486L55.5108 128.415C55.546 128.862 56.162 129.668 56.9364 129.524C57.0068 129.506 57.042 129.453 56.954 129.399C56.6196 129.184 55.898 128.45 56.7428 127.86C56.9892 128.218 57.4996 128.253 57.8692 128.11C57.9748 128.074 57.9572 128.003 57.8868 127.985C57.7108 127.931 57.4292 127.77 57.4996 127.305C58.8196 126.231 62.2868 124.423 66.1588 127.681C70.6996 131.493 67.3732 136.165 65.8948 134.68C65.8244 134.608 65.8244 134.68 65.842 134.769C66.1588 136.147 67.8836 136.04 68.0772 135.342C68.0948 135.288 68.1652 135.234 68.1828 135.378C68.8868 138.242 73.9732 136.147 74.3428 142.036C74.2372 142.054 73.0932 142.269 72.6356 141.714C72.442 141.482 71.5972 140.461 70.5588 141.571C70.4884 141.643 70.5588 141.678 70.594 141.678C71.914 141.643 71.6324 142.591 71.5796 142.77C70.6996 142.036 69.3444 142.18 69.4324 143.88C69.4324 144.005 69.4852 144.005 69.538 143.934C70.2948 142.949 71.122 143.665 71.1748 143.737C70.5588 143.826 69.4324 144.65 70.4708 145.992C70.5236 146.046 70.5764 146.118 70.594 146.01C70.7348 144.435 72.1076 144.936 72.3892 145.097C72.5828 145.205 73.5508 145.491 74.202 144.704C74.466 145.903 75.9444 145.778 76.0852 145.76C76.1908 145.76 76.1908 145.688 76.1028 145.616C75.4692 145.187 74.8708 144.363 75.8212 144.059C75.8212 144.059 77.0884 145.223 78.1092 143.952C78.1972 143.844 78.1444 143.809 78.0916 143.826C77.9684 143.862 76.5252 144.041 76.6308 142.573C76.7012 141.553 77.4404 138.081 76.0676 137.203C75.9796 137.15 75.9444 137.096 76.0324 137.06C77.4052 136.756 77.5812 135.771 77.1412 134.662C77.0884 134.518 77.0004 134.554 77.0004 134.644C76.8948 136.899 73.3572 135.825 73.234 132.675C75.1348 133.176 78.3908 132.496 78.3908 129.345C78.3908 126.249 74.5012 124.584 74.5012 122.329C74.5012 121.953 74.4836 120.395 76.2964 120.395C77.7748 120.395 78.866 121.523 79.1652 122.704C79.1828 122.758 79.2356 122.776 79.2884 122.704C79.4996 122.418 79.4644 121.255 78.9364 120.628C78.8836 120.574 78.9364 120.449 79.0596 120.521C79.218 120.628 79.746 120.789 80.2916 120.789C81.506 120.789 82.1572 120.109 82.1572 118.981C82.1572 118.283 81.9108 117.925 82.0164 117.692C82.0692 117.585 81.9284 117.513 81.8756 117.639C81.6996 117.997 81.3828 118.892 80.1508 118.892C80.1332 118.892 77.5988 118.892 77.1764 118.892C73.85 118.892 73.5508 121.63 73.5508 122.293C73.5508 125.067 77.018 126.267 77.018 129.077C77.018 129.739 76.6836 130.831 74.906 130.831C74.1668 130.831 73.3924 130.616 72.9348 130.419C72.9348 130.419 72.1428 125.497 69.7844 123.778C69.7844 123.778 67.0388 125.139 64.3108 123.635C62.234 122.49 61.2484 121.72 59.418 123.009C57.5876 124.298 56.0036 125.676 55.81 125.64L55.37 125.551V114.47C56.2148 114.381 56.2676 115.151 56.2324 115.348C56.1796 115.598 55.9156 115.813 56.4788 116.69C56.5316 116.762 56.5844 116.726 56.602 116.654C56.6196 116.439 56.7428 116.064 57.0244 116.064C57.306 116.064 58.6084 117.048 59.7172 118.176C59.7172 118.176 60.3508 116.225 61.882 115.616C61.0196 115.473 57.2884 114.56 57.2884 112.895C57.2884 112.34 56.6724 112.215 56.2676 112.251C56.25 112.197 55.634 110.729 54.5076 111.499C54.4548 111.535 54.4548 111.624 54.5252 111.642C55.0356 111.768 55.2468 112.287 55.2644 112.859C54.1732 112.519 49.5444 111.195 44.0532 111.195C41.378 111.195 38.9316 111.517 36.978 111.875V115.706H35.4468V112.179ZM25.3092 151.523C24.9044 151.362 24.6404 151.094 24.6404 150.539V148.158C23.9716 147.926 22.1412 147.21 18.4628 147.21C15.418 147.21 14.4676 147.908 14.4148 148.158L13.6052 152.687C13.6052 152.687 14.8372 151.541 19.2548 151.828C24.57 152.168 30.0788 155.372 30.0788 151.953V149.948C25.9252 149.966 25.3092 151.327 25.3092 151.523ZM58.0276 149.966V151.971C58.0276 155.372 63.5364 152.186 68.8516 151.846C73.2692 151.559 74.5012 152.705 74.5012 152.705L73.6916 148.158C73.6564 147.908 72.6884 147.21 69.6436 147.21C65.9828 147.21 64.1524 147.926 63.466 148.158V150.539C63.466 151.076 63.202 151.344 62.7972 151.523C62.8148 151.327 62.1988 149.966 58.0276 149.966ZM44.0532 147.908C52.6244 147.908 61.3188 148.355 62.4452 149.68C62.5332 149.787 62.5684 149.68 62.5684 149.59V144.972C62.5684 143.63 53.5924 142.842 44.0356 142.842C34.4788 142.842 25.5028 143.63 25.5028 144.972V149.59C25.5028 149.662 25.538 149.769 25.626 149.68C26.8052 148.373 35.4996 147.908 44.0532 147.908ZM36.4148 126.141L35.5524 125.909L35.482 126.016L34.4788 125.568C34.4788 125.568 35.218 125.568 35.3764 125.568C35.4644 125.568 35.4644 125.515 35.4292 125.479C35.0244 125.067 34.6548 124.709 34.6548 124.709C34.6548 124.709 35.0596 124.87 35.6404 125.085C35.7108 125.103 35.7284 125.067 35.6932 125.014C35.4116 124.602 35.0244 124.029 35.0244 124.029C35.0244 124.029 35.834 124.584 35.9924 124.691C36.0452 124.727 36.0804 124.691 36.0628 124.638C35.8516 124.101 35.6052 123.474 35.6052 123.474L36.4852 124.333C36.5204 124.369 36.5732 124.351 36.5556 124.298C36.4676 123.886 36.3092 123.134 36.3092 123.134L36.9604 124.101C36.9956 124.154 37.0484 124.136 37.0484 124.083C37.0484 123.886 37.066 123.027 37.066 123.027C37.066 123.027 37.3476 123.671 37.4708 123.993C37.506 124.065 37.5412 124.065 37.5764 123.975C37.6116 123.868 37.9108 123.152 37.9108 123.152L37.946 124.262L37.8052 124.298L37.6292 125.622C38.914 125.318 40.5332 123.062 41.7652 123.062C43.2436 123.062 43.7716 124.817 46.482 123.922C47.1684 124.96 47.4148 125.855 47.6788 127.09C48.7348 128.092 50.1956 127.752 50.1956 126.696C50.1956 125.264 48.6644 124.996 48.6644 123.492C48.6644 122.83 49.122 121.863 50.3716 121.863C51.0404 121.863 52.0084 122.15 52.5716 122.15C53.2404 122.15 53.3812 121.666 53.4516 121.451C53.5044 121.308 53.698 121.344 53.6804 121.469C53.6628 121.613 53.7508 121.809 53.7508 122.132C53.7508 123.08 52.3956 123.206 52.2372 123.08C52.1668 123.027 52.114 123.098 52.1668 123.152C52.378 123.313 52.3252 123.886 52.0788 124.244C52.0436 124.28 52.0084 124.28 52.0084 124.244C51.8676 123.564 51.0756 122.722 50.3892 122.722C50.1428 122.722 49.6324 122.866 49.6324 123.474C49.6324 124.315 51.3044 125.103 51.3044 126.857C51.3044 128.683 49.5268 129.131 47.7316 128.665C47.7844 130.401 50.3364 131.422 50.3892 130.187C50.3892 130.097 50.442 130.151 50.4596 130.187C50.8292 130.724 50.6708 131.117 50.178 131.332C50.618 131.529 50.706 132.442 50.8292 132.997C51.0228 133.82 51.8676 133.355 51.9204 133.337C51.9732 133.301 51.9908 133.337 51.9556 133.391C51.6388 134.232 50.7764 133.91 50.7764 133.91C50.3364 134.232 50.8644 134.518 51.2692 134.644C51.322 134.662 51.322 134.697 51.2868 134.733C50.9876 134.841 50.354 135.055 50.0372 134.501C49.8084 135.073 49.3332 135.055 49.1572 135.055C48.8228 135.055 48.6116 135.396 48.682 135.861C48.682 135.897 48.6644 135.915 48.6292 135.897C47.8548 135.378 48.2948 134.751 48.6116 134.59C48.5588 134.554 48.0132 134.322 47.7844 134.966C47.7668 135.02 47.7316 135.02 47.714 134.966C47.3796 134.035 48.1188 133.767 48.6468 133.999C48.6116 133.874 48.33 133.409 47.626 133.57C47.5908 133.588 47.5732 133.57 47.5908 133.516C47.714 133.23 48.0484 132.818 48.6996 133.23C49.034 133.444 49.5972 133.14 49.65 133.104C48.506 130.795 46.306 132.728 45.7956 130.921C45.778 130.885 45.7428 130.849 45.7076 130.956C45.5844 131.332 44.6164 131.368 44.4404 130.616C44.4228 130.563 44.4404 130.545 44.4932 130.58C44.634 130.724 44.9332 130.849 45.338 130.276C45.602 129.882 45.6372 129.363 45.6372 129.023C45.6372 127.627 44.2644 125.264 42.1172 125.264C40.762 125.264 39.3012 125.801 38.21 126.607L39.2132 126.839C39.1252 127.878 38.1396 128.486 37.242 128.218L37.4004 127.036C37.242 127.09 36.8548 127.233 36.6436 127.537C36.626 127.555 36.5908 127.555 36.5908 127.52C36.4148 126.839 36.9604 126.499 37.1188 126.428C37.1364 126.41 37.1364 126.41 37.1012 126.41C36.6084 126.392 36.3444 126.75 36.2564 126.875C36.2388 126.893 36.2212 126.893 36.2212 126.875C36.274 126.732 36.186 126.392 36.4148 126.141ZM39.4244 134.16C39.0372 134.644 38.7028 134.178 38.1924 134.178C37.7172 134.178 37.6292 134.59 37.6292 134.751C37.6292 134.787 37.6116 134.787 37.594 134.769C37.0484 134.017 37.6644 133.606 38.0164 133.552C37.9636 133.498 37.4356 133.14 37.1012 133.641C37.0836 133.677 37.0484 133.659 37.0484 133.623C37.0308 132.693 37.7524 132.621 38.2452 133.033C38.3332 132.675 38.1044 132.442 37.7172 132.424C37.6644 132.424 37.6644 132.388 37.682 132.37C37.8404 132.191 37.9988 132.12 38.1572 132.12C38.6676 132.12 38.738 132.782 39.0724 132.782C39.5652 132.782 40.2868 132.102 40.3396 132.03C40.322 131.995 39.8468 130.67 39.9348 129.882C39.9348 129.847 39.9172 129.847 39.8996 129.864C39.6532 130.008 39.0548 129.99 39.0548 129.238C39.0548 129.184 39.0724 129.166 39.1076 129.22C39.3716 129.596 39.8116 129.166 40.0228 128.916C40.2516 128.647 41.5188 126.786 43.1908 126.786C43.5604 126.786 44.0356 127 44.4228 127.269C43.842 127.985 44.4228 128.665 44.8452 128.576C44.898 128.558 44.898 128.611 44.8628 128.629C42.6452 129.471 41.6596 129.811 41.6596 131.708C41.6596 132.693 41.994 133.248 42.5572 133.104C42.5924 133.086 42.61 133.104 42.5748 133.14C42.3636 133.391 42.1348 133.48 41.9412 133.48C41.4836 133.48 41.3956 133.23 41.1492 133.23C40.9028 133.23 40.0756 133.731 40.0756 134.143C40.0756 134.304 40.1812 134.518 40.4628 134.697C40.4804 134.715 40.4628 134.733 40.4628 134.733C40.2164 134.733 39.5652 134.787 39.4244 134.16ZM45.25 115.813C44.5636 115.777 44.106 115.92 44.1412 116.153C44.4756 116.511 44.9156 116.475 45.25 115.813ZM42.698 117.549C43.1908 117.424 43.7188 117.478 43.7892 117.496C43.8596 117.513 43.8596 117.639 43.7716 117.657C42.7508 117.782 42.698 118.265 42.0468 118.265C41.6244 118.265 41.1492 117.818 41.3252 117.173C41.3428 117.084 41.4132 117.084 41.4308 117.173C41.5012 117.46 41.906 117.764 42.698 117.549ZM29.4452 140.569C30.114 141.446 30.7652 140.622 31.6628 140.622C32.1028 140.622 32.6308 140.766 32.7188 141.661C32.7188 141.714 32.754 141.714 32.8068 141.661C33.7748 140.318 32.666 139.566 32.0324 139.459C32.1732 139.334 33.106 138.743 33.722 139.62C33.7572 139.674 33.8276 139.656 33.8276 139.584C33.8276 137.884 32.578 137.758 31.6628 138.492C31.4868 137.83 31.9796 137.4 32.6132 137.4C32.6836 137.4 32.7188 137.347 32.6836 137.311C31.5572 136.094 30.73 137.633 30.5364 137.866C30.0964 138.474 28.4948 137.329 27.8436 136.649C27.8436 136.649 29.2516 135.145 29.2516 133.767C29.2516 133.677 29.234 133.57 29.234 133.516C29.234 133.48 29.2516 133.462 29.2868 133.48C29.4276 133.57 29.6212 133.623 29.8148 133.623C30.1316 133.623 30.7476 133.516 30.7476 132.353C30.7476 132.263 30.7124 132.263 30.6772 132.317C30.5012 132.567 30.3252 132.621 30.1844 132.621C29.0404 132.621 26.6644 128.755 23.8484 128.755C23.1092 128.755 21.7188 129.292 21.0324 130.061C21.3668 130.258 21.4372 130.688 21.402 130.992C21.3492 131.475 20.962 131.726 20.5748 131.833C20.5044 131.851 20.5044 131.905 20.5748 131.941C22.0004 132.496 24.57 133.48 25.1684 133.999C25.8548 134.608 25.7316 135.754 25.3268 137.347C24.9396 138.868 24.1124 138.671 23.7956 138.618C23.7428 138.618 23.7428 138.635 23.7604 138.671C24.13 139.137 24.57 139.298 24.9572 139.298C25.6964 139.298 25.978 138.832 26.3476 138.832C26.9812 138.832 28.3364 139.763 28.3364 140.479C28.3364 140.873 28.0372 141.249 27.6324 141.499C27.6148 141.517 27.6148 141.553 27.65 141.553C27.9492 141.607 29.1988 141.714 29.4452 140.569ZM60.474 141.553C60.5092 141.553 60.5268 141.517 60.4916 141.499C60.1044 141.231 59.7876 140.873 59.7876 140.479C59.7876 139.763 61.1252 138.832 61.7764 138.832C62.1636 138.832 62.4276 139.298 63.1668 139.298C63.554 139.298 63.994 139.137 64.3636 138.671C64.3988 138.635 64.3812 138.6 64.3284 138.618C64.0292 138.671 63.1844 138.868 62.7972 137.347C62.3924 135.754 62.2516 134.608 62.9556 133.999C63.5364 133.48 66.1236 132.496 67.5492 131.941C67.6196 131.905 67.6196 131.851 67.5492 131.833C67.162 131.726 66.7748 131.475 66.722 130.992C66.6868 130.688 66.7572 130.276 67.0916 130.061C66.3876 129.292 64.9972 128.755 64.258 128.755C61.442 128.755 59.066 132.621 57.922 132.621C57.7812 132.621 57.5876 132.567 57.4292 132.317C57.394 132.263 57.3588 132.263 57.3588 132.353C57.3588 133.516 57.9748 133.623 58.2916 133.623C58.4676 133.623 58.6788 133.57 58.8196 133.48C58.8548 133.462 58.8724 133.48 58.8724 133.516C58.8724 133.57 58.8548 133.677 58.8548 133.767C58.8548 135.145 60.2628 136.649 60.2628 136.649C59.6292 137.329 58.0276 138.456 57.57 137.866C57.3764 137.615 56.5492 136.094 55.4228 137.311C55.3876 137.365 55.4052 137.4 55.4932 137.4C56.1268 137.4 56.6196 137.83 56.4436 138.492C55.5284 137.758 54.2788 137.884 54.2788 139.584C54.2788 139.656 54.3492 139.674 54.3844 139.62C54.9828 138.743 55.9332 139.334 56.0564 139.459C55.4228 139.548 54.3316 140.318 55.282 141.661C55.3172 141.714 55.3524 141.714 55.37 141.661C55.4756 140.783 56.0036 140.622 56.426 140.622C57.306 140.622 57.9572 141.446 58.6436 140.569C58.9252 141.714 60.1748 141.607 60.474 141.553ZM37.7524 119.232C37.6644 119.357 37.3652 119.232 37.2596 119.178C37.242 119.16 37.2244 119.178 37.242 119.196C37.3124 119.357 37.594 119.84 38.0164 119.84C38.21 119.84 38.4916 119.733 38.562 119.59C38.562 119.59 40.2164 120.145 41.026 120.36C40.7092 120.789 40.5156 121.308 40.4628 121.863C39.8116 121.451 37.1716 120.019 37.1716 120.019L36.362 121.165C36.2212 121.344 35.57 120.861 35.7108 120.682L36.3268 119.805C36.1156 119.59 35.6228 119.715 35.482 119.769C35.4644 119.769 35.4468 119.769 35.4644 119.733C35.5524 119.554 35.8516 119.035 36.626 119.268C36.626 118.784 35.922 118.945 35.7284 118.999C35.7108 118.999 35.6932 118.999 35.7108 118.981C35.9044 118.766 36.4852 118.301 37.1188 118.695L37.4004 118.301L36.8372 117.692L37.1892 117.191L37.594 117.728L40.6388 113.486C40.7092 113.379 41.3252 113.2 41.5364 113.146C41.554 113.379 41.5892 114.023 41.5188 114.13L38.5268 118.408L39.1604 118.623L38.8084 119.124L38.0692 118.766L37.7524 119.232ZM48.4356 118.534C48.4356 118.928 48.6644 119.5 49.1748 119.321C49.1924 119.303 49.2276 119.321 49.21 119.339C49.1396 119.769 48.3652 120.163 48.0308 119.661C47.714 120.324 47.802 120.95 48.4532 121.308C48.4884 121.326 48.4884 121.38 48.4532 121.416C48.0484 121.702 47.4324 121.648 47.1508 121.076C46.6052 121.487 46.6756 122.382 47.01 122.687C47.01 122.687 45.4964 123.599 44.1236 122.955C43.2084 122.508 42.4692 121.935 41.29 122.042C41.4484 120.36 42.2756 119.93 43.7892 119.679C45.0036 119.482 45.1444 118.91 44.986 118.48C44.5812 118.373 43.8244 118.749 43.8244 118.749C43.6836 118.516 43.8772 118.283 43.8772 118.283C43.8068 118.194 43.7716 117.889 43.7716 117.889C44.6164 117.889 44.7748 117.692 44.7748 117.692C44.9332 116.797 44.0356 116.708 43.3492 117.191C43.0324 116.905 43.0852 116.529 43.0852 116.529C42.9972 116.475 42.9268 116.332 42.9268 116.26C42.9268 116.046 43.93 115.473 44.194 115.401C44.2644 115.097 44.6164 114.685 45.69 114.793C45.8132 114.506 45.602 113.45 45.4788 113.182C45.4436 113.092 45.4964 113.056 45.5844 113.11C45.954 113.343 46.3236 114.238 46.5876 114.256C46.5876 114.256 47.7844 113.611 47.8372 113.647C47.89 113.683 48.066 115.043 48.066 115.043C48.2244 115.24 49.1572 115.043 49.562 115.222C49.6676 115.276 49.6676 115.348 49.562 115.365C49.2628 115.419 48.2948 115.849 48.1364 116.117C48.6996 116.959 48.4356 118.194 48.4356 118.534Z" fill="white"/>
</svg>
